<?xml version="1.0" encoding="UTF-8"?>
<svg width="128" height="128" viewBox="0 0 128 128" fill="none" xmlns="http://www.w3.org/2000/svg" role="img" aria-label="Dioxus icon">
  <defs>
    <linearGradient id="g" x1="20" y1="12" x2="108" y2="120" gradientUnits="userSpaceOnUse">
      <stop stop-color="#4F46E5"/>
      <stop offset="1" stop-color="#22D3EE"/>
    </linearGradient>
  </defs>
  <!-- droplet/leaf shape -->
  <path d="M64 8c18 16 48 36 48 68 0 24-20 44-48 44S16 100 16 76c0-32 30-52 48-68z" fill="url(#g)"/>
  <!-- subtle highlight -->
  <path d="M64 14c12 12 36 28 36 50 0 18-15 33-36 33S28 82 28 64c0-22 24-38 36-50z" fill="white" opacity=".06"/>
  <!-- dx monogram -->
  <path d="M40 83V45h16.8c8.5 0 14.2 5.3 14.2 13s-5.7 13-14.2 13H48.5V83H40zm8.5-21.5h8c3.8 0 6.2-2.3 6.2-5.5s-2.4-5.5-6.2-5.5h-8v11z" fill="white" opacity=".95"/>
  <path d="M73 83l10.2-14.1L73 55h9l5.8 7.9L93.6 55h8.6l-9.9 13.6L102.4 83h-9l-6.8-9.2L79.9 83H73z" fill="white" opacity=".95"/>
</svg>
